<?xml version="1.0" encoding="UTF-8"?>
<svg xmlns="http://www.w3.org/2000/svg" width="690" height="270" viewBox="0 0 690 270">
  <rect width="690" height="270" fill="#F5F5F5"/>
  <g id="wires">
  <path d="M 80 70 L 144 70 L 144 50 L 208 50" stroke="#1565C0" stroke-width="2" fill="none" stroke-linecap="round" stroke-linejoin="round"/>
  <path d="M 230 50 L 415 50 L 415 70 L 600 70" stroke="#1565C0" stroke-width="2" fill="none" stroke-linecap="round" stroke-linejoin="round"/>
  <path d="M 252 50 L 369 50 L 369 105 L 485 105" stroke="#1565C0" stroke-width="2" fill="none" stroke-linecap="round" stroke-linejoin="round"/>
  <path d="M 80 70 L 184 70 L 184 50 L 288 50" stroke="#BDBDBD" stroke-width="2" fill="none" stroke-linecap="round" stroke-linejoin="round"/>
  <path d="M 310 50 L 373 50 L 373 105 L 435 105" stroke="#BDBDBD" stroke-width="2" fill="none" stroke-linecap="round" stroke-linejoin="round"/>
  <path d="M 80 70 L 270 70 L 270 55 L 460 55" stroke="#2E7D32" stroke-width="2" fill="none" stroke-linecap="round" stroke-linejoin="round"/>
  <path d="M 460 55 L 530 55 L 530 70 L 600 70" stroke="#2E7D32" stroke-width="2" fill="none" stroke-linecap="round" stroke-linejoin="round"/>
  <path d="M 485 105 L 555 105 L 555 205 L 625 205" stroke="#1565C0" stroke-width="2" fill="none" stroke-linecap="round" stroke-linejoin="round"/>
  <path d="M 435 105 L 505 105 L 505 205 L 575 205" stroke="#BDBDBD" stroke-width="2" fill="none" stroke-linecap="round" stroke-linejoin="round"/>
  <path d="M 460 55 L 530 55 L 530 155 L 600 155" stroke="#2E7D32" stroke-width="2" fill="none" stroke-linecap="round" stroke-linejoin="round"/>
  </g>
  <g id="components">
<g class="component conduit">
  <rect x="50" y="50" width="60" height="40" fill="#FF8C00" stroke="#444" stroke-width="1.5" rx="3"/>
  <text x="80" y="75" text-anchor="middle" font-family="sans-serif" font-size="9" fill="#222">left_conduit</text>
</g>
<g class="component conduit">
  <rect x="570" y="50" width="60" height="40" fill="#FF8C00" stroke="#444" stroke-width="1.5" rx="3"/>
  <text x="600" y="75" text-anchor="middle" font-family="sans-serif" font-size="9" fill="#222">right_conduit</text>
</g>
<g class="component 2x3">
  <rect x="190" y="50" width="160" height="55" fill="#ECEFF1" stroke="#444" stroke-width="1.5" rx="2"/>
  <line x1="270" y1="50" x2="270" y2="105" stroke="#AAA" stroke-width="1" stroke-dasharray="3,2"/>
  <text x="230" y="98" text-anchor="middle" font-family="sans-serif" font-size="8" fill="#666">A</text>
  <text x="310" y="98" text-anchor="middle" font-family="sans-serif" font-size="8" fill="#666">B</text>
<circle cx="208" cy="64" r="5" fill="#AAA" stroke="#555" stroke-width="1"/><line x1="205" y1="64" x2="211" y2="64" stroke="#555" stroke-width="1"/>
<circle cx="230" cy="64" r="5" fill="#AAA" stroke="#555" stroke-width="1"/><line x1="227" y1="64" x2="233" y2="64" stroke="#555" stroke-width="1"/>
<circle cx="252" cy="64" r="5" fill="#AAA" stroke="#555" stroke-width="1"/><line x1="249" y1="64" x2="255" y2="64" stroke="#555" stroke-width="1"/>
<circle cx="288" cy="64" r="5" fill="#AAA" stroke="#555" stroke-width="1"/><line x1="285" y1="64" x2="291" y2="64" stroke="#555" stroke-width="1"/>
<circle cx="310" cy="64" r="5" fill="#AAA" stroke="#555" stroke-width="1"/><line x1="307" y1="64" x2="313" y2="64" stroke="#555" stroke-width="1"/>
<circle cx="332" cy="64" r="5" fill="#AAA" stroke="#555" stroke-width="1"/><line x1="329" y1="64" x2="335" y2="64" stroke="#555" stroke-width="1"/>
  <text x="270" y="98" text-anchor="middle" font-family="sans-serif" font-size="8" fill="#888">bornera</text>
</g>
<g class="component tipo_l">
  <polygon points="460,55 435,105 485,105" fill="#42A5F5" stroke="#1565C0" stroke-width="1.5"/>
  <circle cx="460" cy="55"  r="4" fill="#FFF" stroke="#333" stroke-width="1"/>
  <circle cx="435"  cy="105" r="4" fill="#FFF" stroke="#333" stroke-width="1"/>
  <circle cx="485" cy="105" r="4" fill="#FFF" stroke="#333" stroke-width="1"/>
  <text x="460" y="90" text-anchor="middle" font-family="sans-serif" font-size="9" fill="#FFF">plug</text>
</g>
<g class="component tipo_l">
  <polygon points="600,155 575,205 625,205" fill="#42A5F5" stroke="#1565C0" stroke-width="1.5"/>
  <circle cx="600" cy="155"  r="4" fill="#FFF" stroke="#333" stroke-width="1"/>
  <circle cx="575"  cy="205" r="4" fill="#FFF" stroke="#333" stroke-width="1"/>
  <circle cx="625" cy="205" r="4" fill="#FFF" stroke="#333" stroke-width="1"/>
  <text x="600" y="190" text-anchor="middle" font-family="sans-serif" font-size="9" fill="#FFF">plug2</text>
</g>
  </g>
</svg>
