<?xml version="1.0" encoding="UTF-8"?>
<svg xmlns="http://www.w3.org/2000/svg" width="691" height="360.5" viewBox="0 0 691 360.5">
  <rect width="691" height="360.5" fill="#F5F5F5"/>
  <g id="wires">
  <path d="M 110 60 L 209.5 60 L 209.5 100" stroke="#1565C0" stroke-width="2" fill="none" stroke-linecap="round" stroke-linejoin="round"/>
  <path d="M 231.5 100 L 231.5 50 L 461 50 L 571 50" stroke="#1565C0" stroke-width="2" fill="none" stroke-linecap="round" stroke-linejoin="round"/>
  <path d="M 253.5 100 L 253.5 70 L 461 70 L 501 70 L 501 230.5 L 487 230.5" stroke="#1565C0" stroke-width="2" fill="none" stroke-linecap="round" stroke-linejoin="round"/>
  <path d="M 110 60 L 131 60 L 131 80 L 289.5 80 L 289.5 100" stroke="#BDBDBD" stroke-width="2" fill="none" stroke-linecap="round" stroke-linejoin="round"/>
  <path d="M 311.5 100 L 311.5 90 L 361 90 L 361 310.5 L 436.5 310.5 L 436.5 231" stroke="#BDBDBD" stroke-width="2" fill="none" stroke-linecap="round" stroke-linejoin="round"/>
  <path d="M 110 60 L 121 60 L 121 165 L 271 165 L 461.5 165 L 461.5 180" stroke="#2E7D32" stroke-width="2" fill="none" stroke-linecap="round" stroke-linejoin="round"/>
  <path d="M 461.5 180 L 461.5 165 L 511 165 L 511 50 L 571 50" stroke="#2E7D32" stroke-width="2" fill="none" stroke-linecap="round" stroke-linejoin="round"/>
  <path d="M 487 230.5 L 601.5 230.5 L 642 230.5 L 642 296 L 627 296" stroke="#1565C0" stroke-width="2" fill="none" stroke-linecap="round" stroke-linejoin="round"/>
  <path d="M 436.5 231 L 436.5 310.5 L 576.5 310.5 L 576.5 296.5" stroke="#BDBDBD" stroke-width="2" fill="none" stroke-linecap="round" stroke-linejoin="round"/>
  <path d="M 461.5 180 L 461.5 165 L 601.5 165 L 601.5 245.5" stroke="#2E7D32" stroke-width="2" fill="none" stroke-linecap="round" stroke-linejoin="round"/>
  </g>
  <g id="components">
<g class="component conduit">
  <rect x="50" y="60" width="60" height="40" fill="#FF8C00" stroke="#444" stroke-width="1.5" rx="3"/>
  <text x="80" y="85" text-anchor="middle" font-family="sans-serif" font-size="9" fill="#222">left_conduit</text>
</g>
<g class="component conduit">
  <rect x="571" y="50" width="60" height="40" fill="#FF8C00" stroke="#444" stroke-width="1.5" rx="3"/>
  <text x="601" y="75" text-anchor="middle" font-family="sans-serif" font-size="9" fill="#222">right_conduit</text>
</g>
<g class="component 2x3">
  <rect x="191" y="100" width="160" height="55" fill="#ECEFF1" stroke="#444" stroke-width="1.5" rx="2"/>
  <line x1="271" y1="100" x2="271" y2="155" stroke="#AAA" stroke-width="1" stroke-dasharray="3,2"/>
  <text x="231" y="148" text-anchor="middle" font-family="sans-serif" font-size="8" fill="#666">A</text>
  <text x="311" y="148" text-anchor="middle" font-family="sans-serif" font-size="8" fill="#666">B</text>
<circle cx="209" cy="114" r="5" fill="#AAA" stroke="#555" stroke-width="1"/><line x1="206" y1="114" x2="212" y2="114" stroke="#555" stroke-width="1"/>
<circle cx="231" cy="114" r="5" fill="#AAA" stroke="#555" stroke-width="1"/><line x1="228" y1="114" x2="234" y2="114" stroke="#555" stroke-width="1"/>
<circle cx="253" cy="114" r="5" fill="#AAA" stroke="#555" stroke-width="1"/><line x1="250" y1="114" x2="256" y2="114" stroke="#555" stroke-width="1"/>
<circle cx="289" cy="114" r="5" fill="#AAA" stroke="#555" stroke-width="1"/><line x1="286" y1="114" x2="292" y2="114" stroke="#555" stroke-width="1"/>
<circle cx="311" cy="114" r="5" fill="#AAA" stroke="#555" stroke-width="1"/><line x1="308" y1="114" x2="314" y2="114" stroke="#555" stroke-width="1"/>
<circle cx="333" cy="114" r="5" fill="#AAA" stroke="#555" stroke-width="1"/><line x1="330" y1="114" x2="336" y2="114" stroke="#555" stroke-width="1"/>
  <text x="271" y="148" text-anchor="middle" font-family="sans-serif" font-size="8" fill="#888">bornera</text>
</g>
<g class="component tipo_l">
  <polygon points="461,180 436,230 486,230" fill="#42A5F5" stroke="#1565C0" stroke-width="1.5"/>
  <circle cx="461" cy="180"  r="4" fill="#FFF" stroke="#333" stroke-width="1"/>
  <circle cx="436"  cy="230" r="4" fill="#FFF" stroke="#333" stroke-width="1"/>
  <circle cx="486" cy="230" r="4" fill="#FFF" stroke="#333" stroke-width="1"/>
  <text x="461" y="215" text-anchor="middle" font-family="sans-serif" font-size="9" fill="#FFF">plug</text>
</g>
<g class="component tipo_l">
  <polygon points="601,245.5 576,295.5 626,295.5" fill="#42A5F5" stroke="#1565C0" stroke-width="1.5"/>
  <circle cx="601" cy="245.5"  r="4" fill="#FFF" stroke="#333" stroke-width="1"/>
  <circle cx="576"  cy="295.5" r="4" fill="#FFF" stroke="#333" stroke-width="1"/>
  <circle cx="626" cy="295.5" r="4" fill="#FFF" stroke="#333" stroke-width="1"/>
  <text x="601" y="280.5" text-anchor="middle" font-family="sans-serif" font-size="9" fill="#FFF">plug2</text>
</g>
  </g>
</svg>
